<?xml version="1.0" standalone="no"?><!DOCTYPE svg PUBLIC "-//W3C//DTD SVG 1.1//EN" "http://www.w3.org/Graphics/SVG/1.1/DTD/svg11.dtd"><svg t="1623154091943" class="icon" viewBox="0 0 1024 1024" version="1.1" xmlns="http://www.w3.org/2000/svg" p-id="29478" xmlns:xlink="http://www.w3.org/1999/xlink" width="200" height="200"><defs><style type="text/css"></style></defs><path d="M353.1264 808.064h246.5536c116.6848 0 211.2768-94.592 211.2768-211.2768v-246.5536h-246.5536c-116.6848 0-211.2768 94.592-211.2768 211.2768v246.5536z" fill="#97E9FF" p-id="29479"></path><path d="M388.4032 108.7488c-149.0176 0-270.2592 121.2416-270.2592 270.2592v524.0832h524.0832c149.0176 0 270.2592-121.2416 270.2592-270.2592V108.7488H388.4032zM866.4064 632.832c0 123.6224-100.5568 224.1792-224.1792 224.1792H164.224V379.008c0-123.6224 100.5568-224.1792 224.1792-224.1792h478.0032V632.832z" fill="#3F3F3F" p-id="29480"></path><path d="M664.8064 404.5568l-16.6656-40.576c29.0304 21.3248 73.5488 68.7872 67.6864 157.0048l45.9776 3.072c5.6064-84.096-26.9568-138.496-55.2448-169.3184a215.25504 215.25504 0 0 0-34.9952-30.592l41.5488-7.7824-8.4992-45.2864-134.144 25.1648 51.7376 125.8752 42.5984-17.5616zM331.4944 465.5616l-28.1856-31.5136-34.3296 30.72 91.008 101.7088 80.8448-109.4656-37.0688-27.3664-26.1888 35.456c2.9952-35.8656 20.352-98.4576 99.3792-139.4176l-21.1968-40.9088c-74.8544 38.784-104.4992 94.7968-116.224 134.9888a212.29824 212.29824 0 0 0-8.0384 45.7984zM429.9008 634.5216l-24.5504 38.9888c46.208 29.0816 89.0368 38.144 124.5184 38.144 19.3024 0 36.4288-2.688 50.7392-6.2976 17.2544-4.352 31.9488-10.4192 43.5456-16.256l-12.9024 40.2688 43.8784 14.0544 41.6256-129.9968-135.3472-14.2848-4.8384 45.824 43.8528 4.6336c-32.4352 15.5904-95.2064 32.3328-170.5216-15.0784z" fill="#3F3F3F" p-id="29481"></path></svg>