<?xml version="1.0" standalone="no"?><!DOCTYPE svg PUBLIC "-//W3C//DTD SVG 1.1//EN" "http://www.w3.org/Graphics/SVG/1.1/DTD/svg11.dtd"><svg t="1623152767201" class="icon" viewBox="0 0 1024 1024" version="1.1" xmlns="http://www.w3.org/2000/svg" p-id="13094" xmlns:xlink="http://www.w3.org/1999/xlink" width="200" height="200"><defs><style type="text/css"></style></defs><path d="M512 512m-414 0a414 414 0 1 0 828 0 414 414 0 1 0-828 0Z" fill="#F0C48A" p-id="13095"></path><path d="M73.2 467L11.6 412.4l265.8-63.8 74.2 258-74.2-43.4s-110.2 145.6-106.6 253.6c-51.8-64.6-150.4-269.6-150.4-269.6l52.8-80.2z" fill="#7BABF1" p-id="13096"></path><path d="M254.8 668s-48-14.4-63.8 19.8S137.2 876 239.6 880c102.4 4.2 202.8-9.4 202.8-9.4v-199l-187.6-3.6zM523 819.2l197.8 188.6-1-81.6 123.2-2.8L994 646.4s-101.4 61.4-226.4 55.4l-64.4 1-3.4-77-176.8 193.4z" fill="#A4CFF2" p-id="13097"></path><path d="M720.4 487.8l-7.8 36.4 126 178.2s167-24 162.2-123c-68.2-105.6-125.8-181.6-125.8-181.6l-154.6 90zM386.2 31.6s96.8 1.2 154.2 156.8l39.2 71.4-62 31.4L760.2 376l90.2-258-73.8 34.4-54.2-111.6L391.6 17.2s-30.8 10.6-5.4 14.4z" fill="#D3E6F8" p-id="13098"></path><path d="M314.2 87l-79.4 123.2s-20.4 18.2 7.8 36.4 134 86.4 134 86.4 26 8.2 48.4-26.6 102.4-173.2 102.4-173.2-103.2-145-185-90.2l-28.2 44z" fill="#FD919E" p-id="13099"></path><path d="M422.2 891.6H206c-13.8 0-26.4-7.4-33-19.4l-163.6-292c-7-12.4-6.4-27.6 1.4-39.4l53.6-81.4-59-37.2c-4-2.4-6-7.2-5.2-11.8 0.8-4.6 4.2-8.4 8.8-9.4l265.8-63.8c6-1.4 12.2 2.2 13.8 8l74.2 258c1.4 4.6-0.2 9.4-4 12.4s-8.8 3.2-13 0.8l-64.4-37.8-49.4 77.8h190.2c21 0 38 17 38 38v159.4c0 20.8-17 37.8-38 37.8zM41.2 417.2L86.8 446c2.6 1.6 4.6 4.4 5.2 7.4 0.6 3 0 6.2-1.6 8.8l-60.2 91.4c-3 4.6-3.2 10.4-0.6 15.2l163.6 292c2.6 4.6 7.6 7.6 12.8 7.6h216.4c8 0 14.6-6.6 14.6-14.6v-159.4c0-8-6.6-14.6-14.6-14.6H211c-4.2 0-8.2-2.4-10.2-6-2-3.8-2-8.2 0.4-11.8l66.4-104.8c3.4-5.2 10.2-7 15.6-3.8l49 28.8-63-219.4-228 54.4z" fill="#4C4372" p-id="13100"></path><path d="M206 891.6c-3.2 0-6.4-1.4-8.8-4-36-40.8-46.6-93.2-30.4-151.4 11.8-43 33.8-73.8 34.8-75.2 3.8-5.2 11-6.4 16.2-2.6 5.2 3.8 6.4 11 2.6 16.2-0.2 0.2-20.8 29.2-31.4 68.4-13.8 50.8-5.2 94.2 25.6 129.2 4.2 4.8 3.8 12.2-1 16.4-2.2 2-5 3-7.6 3zM760.2 387.8c-1.2 0-2.2-0.2-3.4-0.4L499.6 310c-4.6-1.4-7.8-5.4-8.2-10.2-0.4-4.8 2-9.2 6.4-11.4l66.6-33.8-38.6-83.2-103 160c-5.4 8.6-14 14.4-23.8 16.6-10 2.2-20 0.4-28.6-5.2l-134-86.4c-8.6-5.4-14.4-14-16.6-23.8-2.2-10-0.4-20 5.2-28.6l117.2-182c7.4-11.6 20.6-18.2 34.2-17.4l334 20.6c14.2 0.8 26.6 9.6 32.4 22.6l39.4 89.2 63.2-29.4c4.2-2 9.2-1.2 12.8 2 3.4 3.2 4.8 8 3.2 12.4l-90.2 258c-1.8 4.8-6.2 7.8-11 7.8z m-226-91.8l218.6 65.8 77.4-221.4-48.8 22.8c-2.8 1.4-6 1.4-9 0.4-3-1-5.2-3.4-6.6-6.2l-44.2-100c-2.2-5-7-8.4-12.6-8.8L375 28c-5.2-0.4-10.4 2.2-13.2 6.8l-117.2 182c-2.2 3.2-2.8 7.2-2 11 0.8 3.8 3.2 7.2 6.4 9.2l134 86.4c3.2 2.2 7.2 2.8 11 2 3.8-0.8 7.2-3.2 9.2-6.4l114.4-177.6c2.2-3.6 6.4-5.6 10.6-5.4 4.2 0.2 8 2.8 9.8 6.8l52.2 112.6c2.6 5.6 0.2 12.4-5.2 15.2L534.2 296z m-299.4-85.8z" fill="#4C4372" p-id="13101"></path><path d="M527.6 159c-4.6 0-9-2.8-10.8-7.4-0.2-0.4-13.4-33.2-40.4-63.4-35.2-39-76.4-55.4-122.6-48.4-6.4 1-12.2-3.4-13.2-9.8s3.4-12.2 9.8-13.2c53.8-8.2 103.6 11.4 143.8 56.4 29.8 33.2 43.8 68.4 44.4 70 2.4 6-0.6 12.8-6.6 15-1.6 0.4-3 0.8-4.4 0.8zM720.8 1019.4c-3 0-5.8-1.2-8-3.2l-197.8-188.6c-4.6-4.2-4.8-11.4-0.8-16l176.6-202.2c3.2-3.6 8.2-4.8 12.6-3.4 4.4 1.6 7.6 5.8 7.8 10.4l3.2 74.6 91.8-0.8-103.2-159.8c-11.4-17.6-6.2-41 11.2-52.4l134-86.6c17.6-11.4 41-6.2 52.4 11.2l117.4 181.8c7.4 11.6 8 26.2 1.6 38.4l-156.6 295.8c-6.6 12.4-19.4 20.2-33.6 20.2h-0.4l-97.6-0.8 0.8 69.6c0 4.6-2.6 9-7 10.8-1.2 0.6-2.8 1-4.4 1z m-181.8-201l169.8 161.8-0.6-54c0-3.2 1.2-6.2 3.4-8.4s5.2-3.4 8.4-3.4l109.4 1c5.4 0 10.6-3 13.2-7.8L999 612c2.4-4.6 2.2-10.4-0.6-14.8l-117.4-181.8c-4.4-6.8-13.6-8.8-20.4-4.4l-134 86.6c-6.8 4.4-8.8 13.6-4.4 20.4l114.6 177.6c2.2 3.6 2.4 8 0.4 11.8-2 3.8-5.8 6-10.2 6.2l-124 1c-6.2 0-11.4-4.8-11.8-11.2l-2.4-56.8-149.8 171.8z" fill="#4C4372" p-id="13102"></path><path d="M832.6 713.4c-3.6 0-5.6 0-6-0.2-6.4-0.4-11.4-5.8-11-12.2 0.4-6.4 5.8-11.4 12.2-11 0.6 0 36 1.6 74.4-10.8 50.2-16 82-46.8 94.6-91.6 1.8-6.2 8.2-9.8 14.4-8 6.2 1.8 9.8 8.2 8 14.4-14.8 52.4-53 89.6-110.6 107.8-33 10.4-63.4 11.6-76 11.6z" fill="#4C4372" p-id="13103"></path></svg>